<svg width="49" height="48" viewBox="0 0 49 48" fill="none" xmlns="http://www.w3.org/2000/svg">
<rect x="0.5" width="48" height="48" rx="24" fill="#E9DDE2"/>
<path d="M19 16.5C18.2044 16.5 17.4413 16.8161 16.8787 17.3787C16.3161 17.9413 16 18.7044 16 19.5V19.8015L25 24.648L34 19.803V19.5C34 18.7044 33.6839 17.9413 33.1213 17.3787C32.5587 16.8161 31.7956 16.5 31 16.5H19ZM34 21.5055L25.3555 26.16C25.2462 26.2188 25.1241 26.2496 25 26.2496C24.8759 26.2496 24.7538 26.2188 24.6445 26.16L16 21.5055V28.5C16 29.2956 16.3161 30.0587 16.8787 30.6213C17.4413 31.1839 18.2044 31.5 19 31.5H31C31.7956 31.5 32.5587 31.1839 33.1213 30.6213C33.6839 30.0587 34 29.2956 34 28.5V21.5055Z" fill="#5C0029"/>
</svg>
