<svg width="48" height="48" viewBox="0 0 48 48" fill="none" xmlns="http://www.w3.org/2000/svg">
<rect width="48" height="48" rx="24" fill="#E9DDE2"/>
<path d="M25.5 33.888C30.311 33.164 34 29.013 34 24C34 18.477 29.523 14 24 14C18.477 14 14 18.477 14 24C14 29.013 17.689 33.165 22.5 33.888V27H21C20.6022 27 20.2206 26.842 19.9393 26.5607C19.658 26.2794 19.5 25.8978 19.5 25.5C19.5 25.1022 19.658 24.7206 19.9393 24.4393C20.2206 24.158 20.6022 24 21 24H22.5V22C22.5 21.0717 22.8687 20.1815 23.5251 19.5251C24.1815 18.8687 25.0717 18.5 26 18.5H26.5C26.8978 18.5 27.2794 18.658 27.5607 18.9393C27.842 19.2206 28 19.6022 28 20C28 20.3978 27.842 20.7794 27.5607 21.0607C27.2794 21.342 26.8978 21.5 26.5 21.5H26C25.8674 21.5 25.7402 21.5527 25.6464 21.6464C25.5527 21.7402 25.5 21.8674 25.5 22V24H27C27.3978 24 27.7794 24.158 28.0607 24.4393C28.342 24.7206 28.5 25.1022 28.5 25.5C28.5 25.8978 28.342 26.2794 28.0607 26.5607C27.7794 26.842 27.3978 27 27 27H25.5V33.888Z" fill="#5C0029"/>
</svg>
