<svg width="149" height="149" viewBox="0 0 149 149" fill="none" xmlns="http://www.w3.org/2000/svg">
<path d="M147 74.5C147 114.541 114.541 147 74.5 147C34.4594 147 2 114.541 2 74.5C2 34.4594 34.4594 2 74.5 2C114.541 2 147 34.4594 147 74.5ZM26.3158 74.5C26.3158 101.111 47.8886 122.684 74.5 122.684C101.111 122.684 122.684 101.111 122.684 74.5C122.684 47.8886 101.111 26.3158 74.5 26.3158C47.8886 26.3158 26.3158 47.8886 26.3158 74.5Z" fill="#FDFBF8"/>
<path d="M67.2058 14.4787C66.7669 14.546 66.3673 14.5526 66.007 14.4985C65.6567 14.4308 65.2644 14.3271 64.8302 14.1872C64.4727 14.072 64.1247 13.9797 63.7862 13.9102C63.4596 13.8388 63.1125 13.8313 62.7448 13.8877C62.472 13.9295 62.2352 14.0082 62.0344 14.124C61.8455 14.2379 61.6291 14.4107 61.3854 14.6423L60.5252 13.6633C60.7033 13.3204 60.9498 13.0276 61.2647 12.7851C61.5796 12.5426 62.0158 12.3787 62.5733 12.2932C63.0122 12.226 63.4067 12.2262 63.757 12.2939C64.1174 12.348 64.5147 12.4449 64.9489 12.5847C65.3064 12.6999 65.6485 12.7932 65.9751 12.8645C66.3135 12.9341 66.6666 12.9407 67.0343 12.8843C67.3071 12.8425 67.538 12.7646 67.7269 12.6507C67.9277 12.5349 68.1499 12.3613 68.3937 12.1297L69.2539 13.1087C69.0758 13.4516 68.8293 13.7443 68.5144 13.9868C68.1995 14.2293 67.7633 14.3933 67.2058 14.4787Z" fill="#5C0029"/>
<path d="M47.9921 24.5423L44.1937 15.9877L45.9869 15.1915L46.6151 16.6063L46.6974 16.5698C46.6793 16.0264 46.7885 15.5183 47.025 15.0457C47.2726 14.5681 47.7253 14.1833 48.3834 13.8911C49.2608 13.5015 50.0698 13.4902 50.8105 13.8572C51.5572 14.2084 52.1668 14.9159 52.6392 15.9797L55.0497 21.4086L53.2565 22.2048L50.9483 17.0063C50.3541 15.6682 49.5197 15.2378 48.4449 15.7151C48.2146 15.8173 47.9988 15.9525 47.7977 16.1206C47.6027 16.2728 47.4443 16.4482 47.3224 16.6468C47.2005 16.8453 47.1261 17.0622 47.0992 17.2973C47.0833 17.5276 47.1313 17.7689 47.2433 18.0211L49.7853 23.7461L47.9921 24.5423Z" fill="#5C0029"/>
<path d="M42.6458 28.1771C42.1116 28.5438 41.5574 28.7861 40.9831 28.9038C40.4188 29.0146 39.8644 29.0022 39.32 28.8666C38.7688 28.721 38.2394 28.4586 37.7316 28.0794C37.217 27.6904 36.7491 27.1892 36.328 26.5758C35.9069 25.9625 35.6106 25.3507 35.4392 24.7406C35.261 24.1206 35.2063 23.5322 35.2753 22.9754C35.3375 22.4087 35.5216 21.882 35.8279 21.3952C36.144 20.9015 36.5692 20.4714 37.1034 20.1046C37.6376 19.7378 38.1868 19.499 38.7512 19.3881C39.3254 19.2704 39.8881 19.2843 40.4393 19.4299C40.9837 19.5656 41.5132 19.828 42.0278 20.217C42.5356 20.5962 43 21.0925 43.4211 21.7058C43.8422 22.3192 44.1419 22.9358 44.3201 23.5558C44.4916 24.1659 44.5462 24.7543 44.484 25.321C44.4151 25.8778 44.2226 26.4031 43.9064 26.8967C43.6002 27.3835 43.18 27.8103 42.6458 28.1771ZM41.7288 26.8415C42.2828 26.4612 42.6125 25.9873 42.718 25.4201C42.8166 24.8429 42.6316 24.213 42.1629 23.5304L41.2663 22.2246C40.7977 21.542 40.2797 21.1479 39.7124 21.0425C39.1383 20.9272 38.5743 21.0597 38.0203 21.4401C37.4663 21.8205 37.14 22.2992 37.0414 22.8764C36.936 23.4437 37.1176 24.0686 37.5862 24.7512L38.4828 26.0571C38.9515 26.7397 39.4728 27.1386 40.0469 27.2539C40.6142 27.3594 41.1748 27.2219 41.7288 26.8415Z" fill="#5C0029"/>
<path d="M29.2743 24.4283C28.9716 24.7018 28.6846 24.8317 28.4135 24.818C28.1512 24.7962 27.9195 24.674 27.7184 24.4514L27.5132 24.2243C27.3121 24.0017 27.214 23.7588 27.2189 23.4957C27.2326 23.2245 27.3909 22.9522 27.6936 22.6786C27.9964 22.4051 28.2789 22.2793 28.5411 22.3011C28.8034 22.3229 29.0351 22.4451 29.2362 22.6677L29.4414 22.8947C29.6425 23.1174 29.7406 23.3602 29.7357 23.6234C29.7309 23.8865 29.5771 24.1548 29.2743 24.4283ZM29.6619 26.3342L31.1178 25.0189L37.3925 31.9642L35.9366 33.2795L29.6619 26.3342Z" fill="#5C0029"/>
<path d="M33.1317 36.1036C32.6731 36.6111 32.1981 36.8773 31.7066 36.9022C31.2061 36.919 30.7155 36.7102 30.2347 36.2758L25.9877 32.4383L25.0102 33.52L23.8216 32.446L24.3525 31.8584C24.5698 31.618 24.6652 31.405 24.6388 31.2194C24.6204 31.0249 24.4911 30.8191 24.2507 30.6019L23.0353 29.5037L24.218 28.1949L26.1144 29.9085L27.4298 28.4527L28.6185 29.5268L27.3031 30.9825L31.8707 35.1097L33.0895 33.7608L34.2781 34.8348L33.1317 36.1036Z" fill="#5C0029"/>
<path d="M27.1758 40.9576L27.1361 41.0177C27.2803 41.2133 27.4029 41.4306 27.504 41.6697C27.6117 41.8988 27.6763 42.1498 27.6977 42.4226C27.7157 42.6787 27.6822 42.9585 27.5973 43.2618C27.5189 43.5551 27.3741 43.8621 27.1628 44.1827C26.6279 44.9943 25.9513 45.4538 25.1331 45.5613C24.3216 45.6587 23.4298 45.3872 22.4579 44.7466L17.4833 41.4678L18.563 39.8296L23.3272 42.9697C24.5396 43.7688 25.476 43.6674 26.1364 42.6654C26.275 42.455 26.3854 42.2331 26.4673 41.9997C26.5393 41.7597 26.5697 41.5282 26.5585 41.3053C26.554 41.0723 26.4963 40.8546 26.3854 40.6522C26.2811 40.4397 26.1137 40.2575 25.8833 40.1057L20.6531 36.6585L21.7328 35.0203L29.548 40.1713L28.4683 41.8094L27.1758 40.9576Z" fill="#5C0029"/>
<path d="M23.1641 51.6622C22.8978 52.2792 22.5553 52.7849 22.1368 53.1793C21.7182 53.5737 21.2447 53.8529 20.7165 54.017C20.1772 54.1763 19.594 54.2252 18.9671 54.1637C18.3291 54.0974 17.6686 53.9169 16.9855 53.622C16.3024 53.3272 15.7235 52.9727 15.2487 52.5586C14.7629 52.1398 14.3986 51.6819 14.1556 51.1849C13.9017 50.6832 13.7747 50.1448 13.7746 49.5697C13.7745 48.9945 13.9076 48.3985 14.174 47.7815C14.5449 46.9222 15.0421 46.3003 15.6655 45.9159C16.2889 45.5314 16.9748 45.3505 17.7232 45.3729L17.7752 47.1598C17.3263 47.1098 16.9196 47.1891 16.555 47.3977C16.1842 47.5906 15.8918 47.9349 15.6778 48.4307C15.3925 49.0917 15.3854 49.6834 15.6566 50.2056C15.9216 50.7121 16.3846 51.108 17.0457 51.3934L18.5826 52.0568C19.2436 52.3422 19.8548 52.4099 20.4162 52.2601C20.9712 52.0946 21.3914 51.6813 21.6768 51.0202C21.9051 50.4914 21.9591 50.018 21.8388 49.6002C21.7123 49.1665 21.4747 48.7633 21.1259 48.3905L22.4451 47.3328C23.0266 47.9236 23.3809 48.5863 23.5082 49.3209C23.6355 50.0555 23.5208 50.8359 23.1641 51.6622Z" fill="#5C0029"/>
<path d="M19.9904 61.0376C19.8331 61.6909 19.5818 62.2475 19.2365 62.7075C18.8913 63.1675 18.4709 63.5291 17.9755 63.7924C17.4684 64.053 16.8993 64.2122 16.2683 64.2701C15.6283 64.3134 14.9467 64.2481 14.2234 64.0739C13.5 63.8997 12.8692 63.6491 12.3308 63.322C11.7836 62.9804 11.3493 62.5796 11.0281 62.1196C10.6952 61.6568 10.4797 61.142 10.3816 60.5753C10.2835 60.0086 10.3132 59.3986 10.4705 58.7453C10.6306 58.0803 10.8877 57.5251 11.2419 57.0796C11.5988 56.6224 12.028 56.2753 12.5295 56.0381C13.0193 55.7981 13.558 55.6624 14.1456 55.6311C14.7361 55.5881 15.3463 55.6425 15.9763 55.7942L16.6938 55.967L15.1895 62.2144L15.487 62.286C16.187 62.4546 16.8137 62.3895 17.367 62.0907C17.9114 61.7775 18.2764 61.2358 18.4618 60.4658C18.5966 59.9058 18.5879 59.4039 18.4356 58.9599C18.2833 58.5159 18.0295 58.1091 17.6741 57.7397L19.0462 56.8852C19.5248 57.3583 19.8559 57.9565 20.0398 58.6796C20.2119 59.3999 20.1955 60.1859 19.9904 61.0376ZM11.958 59.1035C11.8793 59.4301 11.8646 59.7475 11.9139 60.0556C11.9659 60.352 12.0731 60.6247 12.2353 60.8736C12.4004 61.1108 12.6161 61.317 12.8825 61.4923C13.1488 61.6675 13.457 61.7972 13.807 61.8815L13.9295 61.911L14.9493 57.676L14.7743 57.6339C14.0743 57.4654 13.4707 57.5113 12.9636 57.7719C12.4449 58.0296 12.1097 58.4735 11.958 59.1035Z" fill="#5C0029"/>
<path d="M18.04 75.1242L13.5181 71.5446L8.70331 74.4573L8.84314 72.1936L12.2248 70.2925L12.2281 70.2386L9.10949 67.8818L9.23823 65.7978L13.6399 69.2798L18.5838 66.321L18.4439 68.5847L14.9152 70.5308L14.9119 70.5847L18.1687 73.0402L18.04 75.1242Z" fill="#5C0029"/>
<path d="M18.7674 80.3796C18.8431 81.0473 18.7974 81.6563 18.6304 82.2066C18.4633 82.757 18.1921 83.2406 17.8167 83.6576C17.4293 84.0759 16.9491 84.4202 16.3759 84.6905C15.7894 84.9502 15.1265 85.122 14.3873 85.2058C13.648 85.2896 12.9695 85.2699 12.3516 85.1467C11.7206 85.013 11.1754 84.785 10.7162 84.4626C10.245 84.1417 9.8664 83.7317 9.58036 83.2328C9.29433 82.7338 9.11346 82.1505 9.03775 81.4828C8.96069 80.8031 9.01232 80.1934 9.19266 79.6537C9.37165 79.102 9.65616 78.6289 10.0462 78.2345C10.4243 77.8414 10.8841 77.5296 11.4256 77.2991C11.9657 77.0567 12.5577 76.899 13.2016 76.826L13.9349 76.7429L14.6589 83.128L14.9629 83.0935C15.6784 83.0124 16.2449 82.7368 16.6626 82.2667C17.067 81.7861 17.2246 81.1523 17.1354 80.3654C17.0705 79.793 16.8906 79.3243 16.5956 78.9592C16.3005 78.5941 15.9229 78.2988 15.4625 78.0732L16.4595 76.8008C17.0711 77.0817 17.5869 77.5304 18.007 78.147C18.4153 78.765 18.6687 79.5092 18.7674 80.3796ZM10.558 81.3104C10.5959 81.6443 10.6906 81.9475 10.8423 82.2202C10.9926 82.4809 11.1866 82.7004 11.4242 82.8788C11.6605 83.0452 11.9337 83.1652 12.244 83.2387C12.5542 83.3122 12.8882 83.3287 13.2459 83.2882L13.3711 83.274L12.8804 78.9457L12.7015 78.966C11.9861 79.0471 11.4347 79.2968 11.0474 79.7151C10.6481 80.1348 10.485 80.6665 10.558 81.3104Z" fill="#5C0029"/>
<path d="M21.0107 89.376C21.9188 89.0294 22.7354 89.1158 23.4603 89.6355C24.1853 90.1551 24.8474 91.1996 25.4465 92.7692C25.7204 93.4867 25.9032 94.1169 25.9949 94.6599C26.0935 95.1874 26.1152 95.648 26.0599 96.0416C26.0004 96.424 25.8695 96.7372 25.6673 96.9814C25.4651 97.2256 25.1958 97.4119 24.8595 97.5403C24.3774 97.7243 23.9526 97.7387 23.5851 97.5836C23.2134 97.4172 22.8872 97.1179 22.6065 96.6856L22.4215 96.7562C22.461 97.4989 22.1388 98.0008 21.455 98.2619C21.0065 98.4331 20.6068 98.4123 20.2558 98.1994C19.8937 97.9909 19.5808 97.6929 19.3173 97.3054L19.25 97.331C19.2002 97.9409 19.0102 98.4694 18.68 98.9166C18.3343 99.3568 17.8643 99.6904 17.2701 99.9172C16.3733 100.26 15.5367 100.239 14.7606 99.854C13.9802 99.4584 13.376 98.7 12.948 97.5789C12.7126 96.9623 12.6012 96.4011 12.6136 95.8954L12.3782 95.9853C11.9858 96.1351 11.6489 96.1609 11.3674 96.0629C11.0704 95.9579 10.847 95.7092 10.6973 95.3168L10.1837 93.9715L11.6635 93.4066L12.344 95.1891L12.6972 95.0543C12.8052 94.5635 13.026 94.1324 13.3595 93.7611C13.6818 93.394 14.0952 93.1142 14.5996 92.9216C15.4853 92.5835 16.3184 92.6123 17.0988 93.008C17.868 93.4079 18.4666 94.1685 18.8946 95.2896C19.0572 95.7156 19.1579 96.1139 19.1966 96.4844C19.3606 96.6787 19.5476 96.8321 19.7576 96.9446C19.9563 97.0614 20.1678 97.077 20.392 96.9914C20.6274 96.9016 20.7549 96.7309 20.7745 96.4794C20.7941 96.2278 20.729 95.9059 20.5792 95.5135L19.7575 93.361C19.3467 92.2847 19.2678 91.4221 19.5211 90.7732C19.763 90.1285 20.2596 89.6627 21.0107 89.376ZM21.8673 91.0142C21.5646 91.1298 21.3685 91.3395 21.279 91.6434C21.1852 91.9361 21.2539 92.3852 21.485 92.9906L22.6148 95.9502C23.0043 96.264 23.4177 96.3374 23.8549 96.1705C24.2137 96.0335 24.446 95.7842 24.5521 95.4227C24.665 95.0456 24.5909 94.5151 24.3299 93.8312L23.8934 92.6877C23.3499 91.2639 22.6745 90.7061 21.8673 91.0142ZM17.5661 95.7967C17.3607 95.2586 17.0846 94.8887 16.7379 94.6871C16.3757 94.4786 15.9424 94.4706 15.4379 94.6632L15.1015 94.7916C14.5971 94.9841 14.2849 95.2767 14.165 95.6693C14.0296 96.0549 14.0646 96.5168 14.2701 97.0549C14.4755 97.593 14.7593 97.9664 15.1215 98.1749C15.4682 98.3765 15.8938 98.381 16.3983 98.1885L16.7346 98.0601C17.2391 97.8675 17.559 97.5784 17.6944 97.1927C17.8143 96.8002 17.7715 96.3348 17.5661 95.7967Z" fill="#5C0029"/>
<path d="M28.2833 106.451L20.2773 111.3L19.2608 109.622L20.5849 108.82L20.5383 108.743C20.0015 108.829 19.4837 108.785 18.985 108.61C18.48 108.425 18.041 108.025 17.668 107.409C17.1706 106.588 17.0572 105.787 17.3277 105.005C17.5816 104.22 18.2064 103.526 19.2021 102.923L24.2828 99.8459L25.2992 101.524L20.434 104.471C19.1818 105.229 18.8603 106.111 19.4696 107.117C19.6001 107.333 19.7615 107.53 19.9536 107.708C20.1293 107.882 20.3233 108.017 20.5357 108.113C20.748 108.209 20.9726 108.255 21.2092 108.252C21.4397 108.239 21.6729 108.161 21.909 108.018L27.2668 104.773L28.2833 106.451Z" fill="#5C0029"/>
<path d="M22.0986 116.347C22.3553 116.664 22.4694 116.958 22.441 117.228C22.405 117.488 22.2705 117.713 22.0373 117.902L21.7995 118.094C21.5663 118.283 21.3185 118.368 21.056 118.349C20.7859 118.32 20.5226 118.148 20.2658 117.831C20.0091 117.513 19.8987 117.225 19.9347 116.964C19.9707 116.703 20.1053 116.478 20.3384 116.29L20.5763 116.097C20.8094 115.908 21.0573 115.823 21.3197 115.843C21.5822 115.862 21.8418 116.03 22.0986 116.347ZM24.0226 116.063L22.788 114.538L30.063 108.649L31.2975 110.174L24.0226 116.063Z" fill="#5C0029"/>
<path d="M38.6384 117.598L32.2288 124.419L30.799 123.076L31.8591 121.948L31.7935 121.886C31.2997 122.114 30.7891 122.21 30.2617 122.176C29.7255 122.133 29.1951 121.865 28.6704 121.372C27.9708 120.715 27.6463 119.973 27.6971 119.148C27.7309 118.324 28.1463 117.487 28.9434 116.639L33.011 112.31L34.4408 113.654L30.5458 117.799C29.5432 118.866 29.4705 119.802 30.3275 120.607C30.5111 120.78 30.7194 120.926 30.9524 121.046C31.1684 121.167 31.3915 121.245 31.6218 121.28C31.8521 121.315 32.0809 121.3 32.308 121.233C32.5264 121.159 32.7301 121.021 32.9191 120.82L37.2086 116.255L38.6384 117.598Z" fill="#5C0029"/>
<path d="M47.3165 123.445L42.2844 131.338L40.6301 130.283L41.4623 128.978L41.3864 128.929C40.9434 129.245 40.4596 129.434 39.935 129.498C39.4002 129.556 38.8292 129.391 38.2221 129.004C37.4127 128.488 36.9563 127.82 36.853 126.999C36.7332 126.183 36.9861 125.284 37.6119 124.303L40.8054 119.294L42.4597 120.349L39.4017 125.145C38.6147 126.379 38.7169 127.313 39.7085 127.945C39.921 128.08 40.1529 128.185 40.404 128.26C40.6387 128.339 40.8724 128.374 41.1053 128.366C41.3381 128.358 41.56 128.3 41.7708 128.192C41.9716 128.078 42.1461 127.905 42.2945 127.672L45.6621 122.391L47.3165 123.445Z" fill="#5C0029"/>
<path d="M51.09 126.909L51.1569 126.936C51.3196 126.756 51.508 126.592 51.7219 126.445C51.9248 126.294 52.1577 126.18 52.4207 126.104C52.668 126.035 52.9488 126.012 53.263 126.035C53.5661 126.053 53.8958 126.133 54.2523 126.276C55.1546 126.637 55.7405 127.208 56.0098 127.988C56.2679 128.763 56.1807 129.691 55.7479 130.772L53.533 136.303L51.7116 135.573L53.8329 130.276C54.3727 128.929 54.0856 128.031 52.9716 127.585C52.7376 127.492 52.4981 127.428 52.253 127.395C52.0035 127.372 51.7706 127.389 51.5544 127.444C51.3271 127.496 51.1254 127.596 50.9493 127.745C50.7621 127.89 50.6171 128.09 50.5145 128.346L48.1858 134.162L46.3644 133.432L49.8441 124.743L51.6655 125.472L51.09 126.909Z" fill="#5C0029"/>
<path d="M60.8081 128.554C61.4742 128.709 61.9373 128.995 62.1973 129.413C62.4545 129.843 62.5097 130.373 62.3626 131.004L61.064 136.579L62.484 136.91L62.1206 138.47L61.3492 138.29C61.0337 138.217 60.8011 138.237 60.6516 138.35C60.4904 138.46 60.373 138.673 60.2995 138.988L59.9279 140.584L58.2099 140.184L58.7898 137.694L56.8789 137.249L57.2424 135.689L59.1532 136.134L60.5498 130.138L58.7792 129.726L59.1427 128.166L60.8081 128.554Z" fill="#5C0029"/>
<path d="M70.1758 129.814C71.229 129.891 72.1124 130.149 72.826 130.587C73.5278 131.024 74.118 131.585 74.5968 132.27L73.0998 133.477C72.6968 132.906 72.2422 132.463 71.736 132.149C71.2178 131.834 70.6176 131.651 69.9355 131.601C69.1337 131.541 68.5161 131.676 68.0826 132.005C67.6492 132.334 67.41 132.804 67.3649 133.414C67.3286 133.905 67.4435 134.304 67.7095 134.613C67.9755 134.921 68.4682 135.174 69.1876 135.372L70.286 135.652C71.4898 135.969 72.3757 136.438 72.9436 137.057C73.5115 137.677 73.7583 138.489 73.684 139.494C73.6434 140.045 73.5049 140.534 73.2688 140.962C73.0198 141.401 72.6987 141.756 72.3056 142.028C71.8997 142.311 71.4212 142.516 70.8703 142.644C70.3194 142.771 69.7089 142.811 69.0387 142.761C68.0933 142.691 67.2859 142.463 66.6165 142.077C65.9463 141.702 65.3889 141.186 64.9442 140.527L66.4552 139.375C66.7473 139.818 67.1175 140.182 67.5656 140.468C68.0138 140.754 68.5849 140.923 69.279 140.974C69.9971 141.027 70.5642 140.924 70.9803 140.666C71.3965 140.408 71.6249 140.004 71.6656 139.454C71.7045 138.927 71.5721 138.52 71.2684 138.233C70.9639 137.958 70.4754 137.729 69.803 137.547L68.7072 137.232C67.4684 136.899 66.5829 136.425 66.0509 135.808C65.507 135.19 65.2721 134.379 65.3464 133.373C65.3897 132.787 65.5308 132.262 65.7696 131.798C66.0084 131.335 66.3381 130.944 66.7587 130.626C67.1664 130.319 67.6586 130.091 68.2352 129.941C68.8109 129.803 69.4578 129.761 70.1758 129.814Z" fill="#5C0029"/>
<path d="M83.7679 133.515C84.2035 133.429 84.6025 133.405 84.9648 133.444C85.3177 133.496 85.714 133.583 86.1538 133.704C86.516 133.804 86.8677 133.881 87.2088 133.936C87.5382 133.993 87.8853 133.986 88.2502 133.914C88.521 133.86 88.7542 133.771 88.9498 133.647C89.1337 133.525 89.3423 133.343 89.5759 133.101L90.4774 134.042C90.3143 134.393 90.0806 134.696 89.7764 134.952C89.4722 135.207 89.0435 135.39 88.4902 135.499C88.0546 135.585 87.6604 135.602 87.3075 135.55C86.9452 135.511 86.5441 135.431 86.1043 135.31C85.7421 135.211 85.3963 135.132 85.067 135.075C84.7259 135.02 84.3728 135.029 84.0079 135.101C83.7371 135.154 83.5098 135.242 83.326 135.364C83.1304 135.488 82.9158 135.671 82.6823 135.913L81.7807 134.972C81.9439 134.622 82.1776 134.319 82.4817 134.063C82.7859 133.807 83.2146 133.625 83.7679 133.515Z" fill="#5C0029"/>
<path d="M94.0989 125.799C93.6725 124.925 93.6857 124.104 94.1384 123.336C94.5912 122.567 95.5724 121.815 97.0821 121.078C97.7722 120.741 98.3836 120.502 98.9163 120.362C99.4329 120.217 99.8897 120.154 100.287 120.174C100.673 120.199 100.997 120.302 101.258 120.481C101.519 120.661 101.729 120.912 101.887 121.236C102.113 121.7 102.165 122.121 102.044 122.501C101.911 122.887 101.642 123.238 101.237 123.556L101.323 123.734C102.06 123.629 102.588 123.905 102.91 124.562C103.12 124.994 103.135 125.394 102.954 125.762C102.779 126.142 102.51 126.48 102.148 126.777L102.179 126.842C102.791 126.837 103.335 126.979 103.81 127.268C104.279 127.573 104.653 128.011 104.932 128.583C105.353 129.445 105.407 130.28 105.094 131.088C104.769 131.9 104.068 132.57 102.989 133.096C102.396 133.386 101.847 133.547 101.343 133.58L101.453 133.806C101.637 134.184 101.693 134.517 101.621 134.806C101.543 135.111 101.315 135.356 100.938 135.54L99.6435 136.172L98.9486 134.749L100.663 133.911L100.497 133.572C99.9989 133.508 99.5498 133.327 99.1501 133.028C98.7557 132.74 98.4401 132.353 98.2032 131.868C97.7873 131.016 97.7415 130.183 98.0659 129.371C98.3955 128.569 99.0995 127.905 100.178 127.378C100.588 127.178 100.975 127.042 101.341 126.971C101.52 126.79 101.656 126.59 101.749 126.371C101.848 126.162 101.844 125.95 101.739 125.735C101.629 125.508 101.447 125.396 101.195 125.399C100.943 125.402 100.628 125.496 100.25 125.68L98.1799 126.691C97.1447 127.196 96.2926 127.352 95.6236 127.158C94.9598 126.974 94.4516 126.521 94.0989 125.799ZM95.654 124.799C95.7962 125.091 96.0226 125.267 96.3333 125.329C96.6332 125.396 97.0743 125.288 97.6566 125.004L100.503 123.614C100.781 123.198 100.817 122.78 100.612 122.359C100.444 122.014 100.175 121.805 99.8049 121.731C99.4192 121.653 98.8975 121.774 98.2397 122.095L97.1398 122.632C95.7703 123.3 95.275 124.023 95.654 124.799ZM100.802 128.656C100.284 128.909 99.9404 129.217 99.7706 129.58C99.5952 129.959 99.626 130.392 99.8629 130.877L100.021 131.201C100.258 131.686 100.577 131.971 100.979 132.055C101.375 132.155 101.832 132.079 102.349 131.826C102.867 131.574 103.214 131.258 103.389 130.878C103.559 130.515 103.525 130.091 103.288 129.605L103.13 129.282C102.893 128.797 102.577 128.504 102.181 128.403C101.779 128.319 101.319 128.403 100.802 128.656Z" fill="#5C0029"/>
<path d="M110.455 117.03L116.001 124.57L114.42 125.733L113.503 124.485L113.43 124.539C113.565 125.066 113.567 125.585 113.437 126.098C113.298 126.617 112.938 127.09 112.358 127.517C111.585 128.086 110.797 128.27 109.995 128.071C109.19 127.888 108.443 127.327 107.753 126.39L104.234 121.604L105.815 120.442L109.185 125.024C110.052 126.204 110.959 126.445 111.907 125.748C112.11 125.599 112.292 125.421 112.452 125.214C112.61 125.023 112.727 124.818 112.803 124.598C112.88 124.378 112.906 124.15 112.882 123.914C112.848 123.686 112.749 123.461 112.586 123.238L108.875 118.192L110.455 117.03Z" fill="#5C0029"/>
<path d="M120.865 122.305C121.158 122.021 121.44 121.881 121.711 121.885C121.974 121.898 122.21 122.012 122.419 122.227L122.632 122.447C122.841 122.662 122.947 122.901 122.952 123.165C122.948 123.436 122.799 123.714 122.506 123.998C122.213 124.282 121.935 124.418 121.672 124.405C121.41 124.393 121.174 124.279 120.965 124.063L120.752 123.844C120.543 123.628 120.436 123.389 120.432 123.126C120.427 122.863 120.572 122.589 120.865 122.305ZM120.41 120.414L119.001 121.78L112.485 115.06L113.894 113.695L120.41 120.414Z" fill="#5C0029"/>
<path d="M120.633 105.72L127.999 111.494L126.789 113.038L125.571 112.083L125.515 112.154C125.786 112.625 125.928 113.125 125.941 113.654C125.946 114.192 125.726 114.744 125.282 115.311C124.69 116.066 123.981 116.455 123.154 116.479C122.33 116.519 121.46 116.18 120.544 115.462L115.869 111.797L117.079 110.253L121.556 113.762C122.708 114.665 123.647 114.654 124.373 113.728C124.528 113.53 124.655 113.31 124.754 113.067C124.855 112.841 124.913 112.612 124.927 112.379C124.942 112.147 124.906 111.92 124.819 111.7C124.725 111.489 124.57 111.298 124.352 111.128L119.423 107.264L120.633 105.72Z" fill="#5C0029"/>
<path d="M125.681 96.5538L133.992 100.86L133.089 102.602L131.715 101.89L131.673 101.97C132.027 102.383 132.259 102.848 132.369 103.365C132.475 103.892 132.361 104.476 132.03 105.115C131.588 105.967 130.964 106.482 130.156 106.658C129.354 106.85 128.436 106.678 127.402 106.143L122.128 103.41L123.031 101.668L128.081 104.285C129.381 104.959 130.302 104.773 130.843 103.729C130.959 103.505 131.043 103.265 131.095 103.008C131.152 102.768 131.166 102.532 131.137 102.3C131.108 102.069 131.031 101.853 130.905 101.653C130.773 101.463 130.585 101.305 130.34 101.178L124.779 98.2957L125.681 96.5538Z" fill="#5C0029"/>
<path d="M126.793 93.7095C126.944 93.216 127.197 92.8793 127.553 92.6995C127.921 92.5231 128.331 92.4729 128.785 92.5487L128.811 92.4626C128.301 92.1187 127.973 91.6734 127.826 91.1267C127.68 90.58 127.706 89.9796 127.906 89.3254C128.19 88.3958 128.65 87.7521 129.286 87.3944C129.919 87.0481 130.643 86.9994 131.458 87.2483C132.353 87.5217 132.926 88.0481 133.177 88.8275C133.425 89.6184 133.358 90.6393 132.976 91.8902L132.482 93.5084L133.239 93.7398C133.79 93.908 134.26 93.8885 134.65 93.6813C135.039 93.474 135.33 93.0548 135.523 92.4236C135.684 91.8957 135.701 91.4302 135.573 91.0273C135.445 90.6244 135.239 90.2538 134.953 89.9156L136.31 89.1069C136.724 89.5595 137.009 90.1046 137.166 90.7421C137.334 91.3832 137.285 92.1398 137.019 93.012C136.664 94.1712 136.123 94.9782 135.394 95.4332C134.666 95.8882 133.796 95.9615 132.786 95.653L128.293 94.2807L128.004 95.2275L126.472 94.7596L126.793 93.7095ZM129.172 90.2955C128.993 90.8808 128.972 91.4014 129.109 91.8572C129.257 92.3166 129.549 92.6128 129.985 92.746L131.277 93.1404L131.76 91.5566C132.156 90.2598 131.953 89.4886 131.149 89.2433L130.84 89.1486C130.438 89.0259 130.093 89.065 129.806 89.2659C129.527 89.4817 129.316 89.8249 129.172 90.2955Z" fill="#5C0029"/>
<path d="M129.335 84.0482C129.443 83.3851 129.69 82.9148 130.076 82.6375C130.472 82.374 130.972 82.2917 131.576 82.3906L142.802 84.2284L142.485 86.1646L130.921 84.2715L130.712 85.5505L129.131 85.2917L129.335 84.0482Z" fill="#5C0029"/>
<path d="M139.634 71.6348L139.592 73.5964L138.045 73.5637L138.043 73.6536C138.602 73.8695 139.027 74.2086 139.317 74.6708C139.619 75.1453 139.764 75.6945 139.751 76.3184C139.726 77.5061 139.274 78.4148 138.397 79.0443C137.531 79.6742 136.325 79.9727 134.777 79.94C133.229 79.9072 132.03 79.5578 131.18 78.8916C130.342 78.2258 129.936 77.2989 129.961 76.1112C129.974 75.4874 130.142 74.9448 130.463 74.4835C130.785 74.0342 131.224 73.7134 131.78 73.5211L131.782 73.4311L126.635 73.3222L126.677 71.3607L139.634 71.6348ZM131.665 75.5531C131.651 76.237 131.855 76.7874 132.278 77.2045C132.714 77.6218 133.291 77.8381 134.011 77.8533L135.631 77.8876C136.35 77.9028 136.931 77.711 137.371 77.3122C137.824 76.9137 138.057 76.3726 138.072 75.6887C138.084 75.0888 137.945 74.5818 137.654 74.1675C137.374 73.7535 136.995 73.5414 136.515 73.5313L133.312 73.4635C132.832 73.4534 132.438 73.6491 132.129 74.0506C131.832 74.4524 131.678 74.9533 131.665 75.5531Z" fill="#5C0029"/>
<path d="M128.511 61.4159C128.309 60.5511 128.291 59.7912 128.459 59.1359C128.626 58.4807 128.928 57.8741 129.364 57.3162L130.773 58.2811C130.443 58.7155 130.209 59.1645 130.071 59.6281C129.947 60.1006 129.949 60.6115 130.078 61.1607C130.209 61.7216 130.411 62.1119 130.684 62.3315C130.971 62.5601 131.308 62.6293 131.694 62.5393C131.986 62.471 132.208 62.3144 132.36 62.0693C132.527 61.8332 132.583 61.4688 132.53 60.976L132.439 60.1101C132.337 59.148 132.434 58.349 132.729 57.7132C133.039 57.0864 133.614 56.6747 134.455 56.4782C134.899 56.3744 135.31 56.3648 135.687 56.4492C136.076 56.5309 136.421 56.6906 136.723 56.9281C137.039 57.1746 137.31 57.4873 137.534 57.8663C137.761 58.2569 137.933 58.7035 138.05 59.206C138.241 60.0239 138.268 60.72 138.131 61.2943C137.997 61.8802 137.75 62.4308 137.39 62.9463L135.993 62.0339C136.219 61.7347 136.386 61.3691 136.495 60.9371C136.618 60.514 136.622 60.0571 136.508 59.5663C136.385 59.0404 136.188 58.6735 135.918 58.4656C135.65 58.2693 135.347 58.2108 135.008 58.29C134.657 58.3718 134.42 58.5443 134.297 58.8072C134.174 59.0702 134.128 59.4566 134.161 59.9665L134.252 60.8325C134.335 61.8729 134.208 62.6728 133.87 63.2323C133.547 63.8007 133.018 64.1709 132.281 64.3429C131.837 64.4466 131.414 64.4531 131.01 64.3625C130.622 64.2808 130.262 64.1122 129.931 63.8567C129.6 63.6013 129.313 63.2679 129.069 62.8566C128.825 62.4453 128.639 61.9651 128.511 61.4159Z" fill="#5C0029"/>
<path d="M125.806 52.981C125.47 52.1592 125.333 51.4115 125.394 50.7381C125.456 50.0646 125.658 49.4179 126.001 48.7979L127.544 49.5277C127.287 50.0088 127.127 50.4892 127.064 50.9688C127.017 51.455 127.1 51.9591 127.313 52.4811C127.531 53.0142 127.793 53.3675 128.097 53.5411C128.417 53.7213 128.761 53.7364 129.127 53.5865C129.405 53.4728 129.599 53.283 129.711 53.0169C129.838 52.7574 129.836 52.3886 129.705 51.9106L129.478 51.07C129.226 50.1361 129.195 49.3319 129.386 48.6574C129.592 47.9895 130.095 47.4919 130.895 47.1646C131.317 46.9919 131.72 46.9174 132.106 46.9411C132.503 46.9602 132.869 47.0632 133.205 47.2499C133.556 47.4433 133.873 47.7093 134.154 48.048C134.44 48.3978 134.68 48.8115 134.876 49.2891C135.194 50.0665 135.331 50.7495 135.286 51.3382C135.247 51.9379 135.09 52.5208 134.816 53.0868L133.293 52.4069C133.468 52.0757 133.576 51.6882 133.614 51.2445C133.669 50.8073 133.601 50.3554 133.41 49.889C133.205 49.3892 132.953 49.0581 132.653 48.8955C132.358 48.7441 132.049 48.7343 131.727 48.8661C131.394 49.0025 131.187 49.2102 131.107 49.4894C131.027 49.7686 131.043 50.1573 131.156 50.6556L131.384 51.4961C131.63 52.5103 131.631 53.3204 131.386 53.9262C131.157 54.5386 130.693 54.988 129.993 55.2743C129.571 55.447 129.154 55.5205 128.741 55.4948C128.344 55.4757 127.962 55.3662 127.595 55.1663C127.228 54.9664 126.892 54.6827 126.586 54.3152C126.28 53.9478 126.02 53.503 125.806 52.981Z" fill="#5C0029"/>
<path d="M121.594 44.7436C121.238 44.1732 121.018 43.6037 120.932 43.035C120.846 42.4663 120.883 41.913 121.043 41.3752C121.213 40.831 121.499 40.3137 121.9 39.8232C122.318 39.3366 122.842 38.8966 123.474 38.5032C124.105 38.1097 124.726 37.8358 125.337 37.6815C125.965 37.531 126.555 37.5025 127.108 37.5961C127.671 37.6834 128.189 37.8908 128.662 38.2184C129.135 38.5459 129.549 38.9949 129.904 39.5652C130.266 40.1457 130.482 40.7184 130.551 41.2833C130.626 41.8583 130.573 42.4078 130.39 42.9316C130.218 43.4491 129.936 43.9282 129.547 44.3691C129.163 44.8201 128.696 45.217 128.146 45.5596L127.52 45.9499L124.122 40.496L123.862 40.6578C123.251 41.0386 122.858 41.5309 122.683 42.1349C122.524 42.7427 122.654 43.3827 123.073 44.0549C123.378 44.5438 123.742 44.8896 124.165 45.0924C124.588 45.2953 125.056 45.3996 125.569 45.4054L125.216 46.9828C124.543 46.992 123.884 46.8086 123.24 46.4325C122.606 46.05 122.057 45.487 121.594 44.7436ZM128.606 40.3743C128.428 40.0892 128.212 39.8561 127.958 39.6751C127.71 39.5043 127.441 39.3895 127.15 39.3306C126.865 39.2818 126.566 39.291 126.255 39.358C125.943 39.4249 125.634 39.5536 125.329 39.744L125.222 39.8106L127.525 43.5077L127.678 43.4125C128.289 43.0317 128.68 42.5693 128.85 42.0251C129.03 41.4746 128.948 40.9243 128.606 40.3743Z" fill="#5C0029"/>
<path d="M117.845 39.0716C117.416 38.5543 117.224 38.0591 117.268 37.586C117.329 37.1145 117.595 36.6834 118.066 36.2927L126.823 29.0307L128.075 30.541L119.055 38.0212L119.883 39.0188L118.649 40.0415L117.845 39.0716Z" fill="#5C0029"/>
<path d="M104.83 26.8382L110.791 19.6217L112.304 20.8711L111.318 22.0646L111.387 22.1219C111.614 21.998 111.847 21.8949 112.087 21.8124C112.335 21.7376 112.583 21.7011 112.831 21.7031C113.095 21.7035 113.356 21.7554 113.613 21.8588C113.887 21.9605 114.162 22.126 114.44 22.3553C114.93 22.7603 115.266 23.2397 115.446 23.7936C115.627 24.3475 115.599 24.9468 115.362 25.5916L115.404 25.626C115.869 25.3259 116.406 25.1853 117.013 25.2042C117.62 25.2231 118.215 25.4732 118.798 25.9547C119.519 26.5507 119.876 27.2583 119.869 28.0772C119.87 28.8869 119.499 29.7405 118.758 30.638L114.975 35.2177L113.462 33.9682L117.096 29.5689C117.555 29.0138 117.792 28.5096 117.809 28.0562C117.833 27.5937 117.614 27.1713 117.151 26.7892C116.957 26.6287 116.749 26.5036 116.527 26.414C116.313 26.315 116.095 26.2591 115.872 26.2463C115.658 26.241 115.445 26.2827 115.232 26.3712C115.019 26.4597 114.828 26.6057 114.66 26.8093L110.659 31.6527L109.146 30.4032L112.78 26.0039C113.705 24.8844 113.728 23.9617 112.849 23.2357C112.664 23.0828 112.456 22.9577 112.225 22.8604C112.011 22.7615 111.793 22.7056 111.57 22.6927C111.347 22.6799 111.129 22.7177 110.916 22.8062C110.702 22.8947 110.512 23.0407 110.344 23.2443L106.343 28.0877L104.83 26.8382Z" fill="#5C0029"/>
<path d="M102.033 25.4655C101.571 25.2365 101.28 24.9317 101.16 24.5511C101.046 24.1598 101.063 23.7465 101.212 23.3113L101.131 23.2713C100.709 23.7184 100.216 23.9698 99.6528 24.0256C99.0895 24.0814 98.5014 23.9576 97.8884 23.654C97.0174 23.2227 96.4571 22.664 96.2076 21.9781C95.9689 21.2974 96.0386 20.5753 96.4167 19.8118C96.832 18.9731 97.4447 18.4931 98.2546 18.3719C99.0752 18.2561 100.072 18.4884 101.244 19.0688L102.76 19.8197L103.111 19.11C103.367 18.5938 103.424 18.1267 103.283 17.7086C103.142 17.2906 102.776 16.9351 102.184 16.6422C101.69 16.3972 101.233 16.3051 100.815 16.3657C100.396 16.4263 99.9972 16.5701 99.617 16.7969L99.0398 15.326C99.5537 14.9913 100.138 14.7986 100.792 14.7478C101.452 14.6862 102.191 14.8578 103.008 15.2625C104.094 15.8004 104.803 16.4658 105.133 17.2588C105.463 18.0518 105.394 18.9214 104.926 19.8677L102.841 24.0778L103.728 24.5171L103.017 25.9527L102.033 25.4655ZM99.0515 22.5628C99.5999 22.8344 100.11 22.9398 100.582 22.879C101.06 22.8074 101.399 22.5673 101.602 22.1586L102.201 20.9488L100.717 20.2139C99.5017 19.6122 98.7077 19.6877 98.335 20.4404L98.1912 20.7308C98.0048 21.1071 97.9873 21.4534 98.1388 21.7694C98.3064 22.08 98.6106 22.3445 99.0515 22.5628Z" fill="#5C0029"/>
<path d="M89.8146 20.6196C89.1691 20.4325 88.6246 20.1559 88.181 19.7899C87.7373 19.4239 87.3953 18.9875 87.155 18.4805C86.918 17.962 86.785 17.3862 86.7561 16.7531C86.7421 16.1119 86.8387 15.434 87.0458 14.7194C87.253 14.0048 87.5323 13.3861 87.8837 12.8633C88.2501 12.3323 88.6703 11.9169 89.1446 11.617C89.6221 11.3057 90.1462 11.114 90.7168 11.0421C91.2874 10.9701 91.8954 11.0276 92.5409 11.2147C93.1978 11.4052 93.7407 11.6875 94.1695 12.0617C94.6098 12.4392 94.9369 12.8838 95.1509 13.3957C95.3682 13.8959 95.479 14.4403 95.4833 15.0288C95.4992 15.6206 95.4169 16.2277 95.2365 16.8501L95.031 17.5589L88.8591 15.7698L88.7739 16.0637C88.5734 16.7552 88.6097 17.3842 88.8828 17.9506C89.1708 18.5089 89.6951 18.8982 90.4558 19.1187C91.009 19.2791 91.5109 19.2934 91.9614 19.1616C92.4119 19.0298 92.8298 18.7949 93.2152 18.4568L94.0059 19.8667C93.5113 20.3231 92.8986 20.6265 92.1678 20.777C91.4403 20.9159 90.6559 20.8635 89.8146 20.6196ZM92.1149 12.6842C91.7922 12.5907 91.4758 12.5615 91.1658 12.5965C90.8673 12.6349 90.59 12.7295 90.3339 12.8801C90.0894 13.0341 89.8735 13.2402 89.6862 13.4982C89.499 13.7563 89.3552 14.0582 89.255 14.404L89.2199 14.525L93.4037 15.7378L93.4538 15.5649C93.6542 14.8734 93.636 14.2684 93.399 13.7499C93.1653 13.2199 92.7373 12.8647 92.1149 12.6842Z" fill="#5C0029"/>
<path d="M79.4951 18.6426C78.444 18.5409 77.5667 18.2632 76.8631 17.8093C76.1715 17.3566 75.5941 16.7824 75.1309 16.0866L76.6549 14.9138C77.0448 15.4941 77.4893 15.947 77.9883 16.2725C78.4992 16.5992 79.0951 16.7955 79.7759 16.8613C80.5761 16.9387 81.1967 16.8179 81.6374 16.4989C82.0782 16.1798 82.328 15.7157 82.3869 15.1065C82.4343 14.6168 82.3285 14.2148 82.0696 13.9004C81.8106 13.586 81.3238 13.3219 80.6091 13.1081L79.5173 12.8036C78.3209 12.4588 77.4459 11.9703 76.8922 11.3381C76.3385 10.7058 76.1102 9.88806 76.2072 8.88474C76.2603 8.3353 76.4098 7.84943 76.6556 7.42713C76.9145 6.99405 77.2435 6.6461 77.6427 6.38331C78.0549 6.10972 78.5379 5.91532 79.0915 5.80008C79.6452 5.68484 80.2565 5.65957 80.9254 5.72427C81.869 5.81553 82.671 6.06188 83.3314 6.46332C83.993 6.85282 84.5386 7.3818 84.9682 8.05027L83.4315 9.16752C83.1495 8.71828 82.7877 8.34572 82.3461 8.04984C81.9045 7.75395 81.3373 7.57251 80.6446 7.50551C79.9279 7.4362 79.3587 7.52581 78.9368 7.77435C78.5149 8.02289 78.2774 8.42188 78.2242 8.97131C78.1734 9.49686 78.2965 9.90662 78.5936 10.2006C78.8918 10.4826 79.375 10.7222 80.0431 10.9195L81.1314 11.2598C82.3625 11.62 83.2369 12.1145 83.7548 12.7432C84.2846 13.3732 84.501 14.1898 84.404 15.1931C84.3474 15.7784 84.1944 16.3001 83.9452 16.7582C83.6959 17.2164 83.3575 17.5996 82.9298 17.9078C82.5152 18.2053 82.018 18.4224 81.4381 18.5592C80.8594 18.6841 80.2118 18.7119 79.4951 18.6426Z" fill="#5C0029"/>
<circle cx="74" cy="74" r="8" fill="#5C0029"/>
</svg>
