<svg width="48" height="48" viewBox="0 0 48 48" fill="none" xmlns="http://www.w3.org/2000/svg">
<rect width="48" height="48" rx="24" fill="#E9DDE2"/>
<path d="M32.9471 20.305C32.9376 19.5475 32.7958 18.7976 32.5281 18.089C32.297 17.4908 31.9433 16.9476 31.4899 16.4941C31.0365 16.0407 30.4932 15.6871 29.8951 15.456C29.1954 15.1932 28.4563 15.0512 27.7091 15.036C26.7471 14.993 26.4421 14.981 24.0001 14.981C21.5581 14.981 21.2451 14.981 20.2901 15.036C19.5432 15.0513 18.8044 15.1933 18.1051 15.456C17.5069 15.6871 16.9637 16.0407 16.5102 16.4941C16.0568 16.9476 15.7032 17.4908 15.4721 18.089C15.2098 18.7883 15.0681 19.5272 15.0531 20.274C15.0101 21.237 14.9971 21.542 14.9971 23.984C14.9971 26.426 14.9971 26.738 15.0531 27.694C15.0681 28.442 15.2091 29.18 15.4721 29.881C15.7034 30.479 16.0572 31.0221 16.5108 31.4754C16.9645 31.9287 17.5078 32.2821 18.1061 32.513C18.8036 32.7859 19.5425 32.938 20.2911 32.963C21.2541 33.006 21.5591 33.019 24.0011 33.019C26.4431 33.019 26.7561 33.019 27.7111 32.963C28.4582 32.948 29.1974 32.8064 29.8971 32.544C30.4946 32.3118 31.0373 31.9578 31.4906 31.5045C31.9439 31.0512 32.2979 30.5085 32.5301 29.911C32.7931 29.211 32.9341 28.473 32.9491 27.724C32.9921 26.762 33.0051 26.457 33.0051 24.014C33.0031 21.572 33.0031 21.262 32.9471 20.305ZM23.9941 28.602C21.4401 28.602 19.3711 26.533 19.3711 23.979C19.3711 21.425 21.4401 19.356 23.9941 19.356C25.2202 19.356 26.396 19.843 27.263 20.71C28.13 21.577 28.6171 22.7529 28.6171 23.979C28.6171 25.2051 28.13 26.3809 27.263 27.2479C26.396 28.1149 25.2202 28.602 23.9941 28.602ZM28.8011 20.263C28.6595 20.2631 28.5192 20.2353 28.3884 20.1812C28.2575 20.127 28.1386 20.0476 28.0385 19.9475C27.9384 19.8474 27.859 19.7285 27.8049 19.5976C27.7507 19.4668 27.7229 19.3266 27.7231 19.185C27.7231 19.0435 27.7509 18.9033 27.8051 18.7726C27.8592 18.6419 27.9386 18.5231 28.0387 18.423C28.1387 18.323 28.2575 18.2436 28.3882 18.1895C28.519 18.1353 28.6591 18.1075 28.8006 18.1075C28.9421 18.1075 29.0822 18.1353 29.2129 18.1895C29.3436 18.2436 29.4624 18.323 29.5625 18.423C29.6625 18.5231 29.7419 18.6419 29.7961 18.7726C29.8502 18.9033 29.8781 19.0435 29.8781 19.185C29.8781 19.781 29.3961 20.263 28.8011 20.263Z" fill="#5C0029"/>
<path d="M23.994 26.9821C25.6525 26.9821 26.997 25.6376 26.997 23.9791C26.997 22.3206 25.6525 20.9761 23.994 20.9761C22.3355 20.9761 20.991 22.3206 20.991 23.9791C20.991 25.6376 22.3355 26.9821 23.994 26.9821Z" fill="#5C0029"/>
</svg>
