<svg width="49" height="48" viewBox="0 0 49 48" fill="none" xmlns="http://www.w3.org/2000/svg">
<rect x="0.5" width="48" height="48" rx="24" fill="#E9DDE2"/>
<path d="M25 33.325C24.7667 33.325 24.5333 33.2833 24.3 33.2C24.0667 33.1167 23.8583 32.9917 23.675 32.825C22.5917 31.825 21.6333 30.85 20.8 29.9C19.9667 28.95 19.271 28.0293 18.713 27.138C18.155 26.2467 17.73 25.3883 17.438 24.563C17.146 23.7377 17 22.95 17 22.2C17 19.7 17.8043 17.7083 19.413 16.225C21.0217 14.7417 22.884 14 25 14C27.116 14 28.9787 14.7417 30.588 16.225C32.1973 17.7083 33.0013 19.7 33 22.2C33 22.95 32.8543 23.7377 32.563 24.563C32.2717 25.3883 31.8467 26.2467 31.288 27.138C30.7293 28.0293 30.0333 28.95 29.2 29.9C28.3667 30.85 27.4083 31.825 26.325 32.825C26.1417 32.9917 25.9333 33.1167 25.7 33.2C25.4667 33.2833 25.2333 33.325 25 33.325ZM25 24C25.55 24 26.021 23.8043 26.413 23.413C26.805 23.0217 27.0007 22.5507 27 22C26.9993 21.4493 26.8037 20.9787 26.413 20.588C26.0223 20.1973 25.5513 20.0013 25 20C24.4487 19.9987 23.978 20.1947 23.588 20.588C23.198 20.9813 23.002 21.452 23 22C22.998 22.548 23.194 23.019 23.588 23.413C23.982 23.807 24.4527 24.0027 25 24Z" fill="#5C0029"/>
</svg>
