<svg width="49" height="48" viewBox="0 0 49 48" fill="none" xmlns="http://www.w3.org/2000/svg">
<rect x="0.5" width="48" height="48" rx="24" fill="#E9DDE2"/>
<path d="M24.932 20.98L23.278 22.464C23.4966 23.2124 23.802 23.9326 24.188 24.61C24.5905 25.2825 25.0756 25.902 25.632 26.454L27.774 25.794C28.974 25.424 30.284 25.804 31.082 26.754L32.302 28.206C32.7959 28.7889 33.0435 29.5412 32.9924 30.3035C32.9412 31.0659 32.5953 31.7783 32.028 32.29C30.038 34.106 26.974 34.72 24.68 32.918C22.6629 31.3315 20.9568 29.3854 19.648 27.178C18.3358 24.9815 17.4572 22.5536 17.06 20.026C16.62 17.182 18.702 14.906 21.298 14.13C22.846 13.666 24.498 14.462 25.066 15.946L25.736 17.696C26.176 18.848 25.86 20.148 24.932 20.98Z" fill="#5C0029"/>
</svg>
