<svg width="48" height="48" viewBox="0 0 48 48" fill="none" xmlns="http://www.w3.org/2000/svg">
<rect width="48" height="48" rx="24" fill="#E9DDE2"/>
<path d="M14.2491 24.0299C14.3131 27.0319 15.7021 30.0349 18.0591 31.8439C18.8021 32.3919 19.6091 32.7149 20.4491 33.0709C20.0931 30.7779 20.9651 28.4849 21.4491 26.2249C21.5141 25.9989 21.5461 25.7409 21.5461 25.4819C21.5461 25.1269 21.4171 24.7719 21.3201 24.4169C21.217 23.8261 21.2958 23.2179 21.5461 22.6729C21.9021 21.9309 22.7411 21.3489 23.4841 21.6399C24.1621 21.8979 24.4201 22.8019 24.2911 23.5129C24.1611 24.2549 23.7741 24.9009 23.5811 25.6119C23.3551 26.3219 23.3871 27.1939 23.9031 27.6779C24.3881 28.1299 25.1631 28.1629 25.7761 27.9039C26.6801 27.5169 27.2621 26.6129 27.6161 25.7089C28.2631 24.0289 28.1341 21.8989 26.8101 20.6709C26.2601 20.1219 25.4861 19.7669 24.6461 19.6379C23.2261 19.4119 21.6761 19.8319 20.6741 20.8649C19.6741 21.8979 19.2211 23.4799 19.6411 24.8369C19.7711 25.2889 20.0291 25.7409 20.1261 26.1929C20.2231 26.6449 20.1901 27.2259 19.8671 27.5489C19.8296 27.588 19.7861 27.6208 19.7381 27.6459C19.6731 27.6779 19.5771 27.6139 19.5121 27.5809C18.8991 27.1939 18.4141 26.5809 18.1241 25.9349C17.2191 23.9649 17.6721 21.5109 19.0921 19.8959C20.5131 18.2819 22.8061 17.5059 24.9371 17.7969C26.9391 18.0559 28.9081 19.2499 29.7481 21.0909C30.2651 22.1889 30.3611 23.4479 30.1681 24.6429C29.9741 25.8699 29.4901 27.0329 28.6821 27.9689C27.8741 28.9049 26.7121 29.5509 25.4861 29.6159C24.4851 29.6799 23.4191 29.3249 22.9021 28.4859C22.5801 30.2289 21.9661 31.9399 21.0621 33.4579C21.0301 33.5229 23.1291 33.9749 23.3221 33.9749C25.7121 34.1689 28.2621 33.2319 30.1361 31.7469C35.3021 27.6459 34.7531 19.7989 29.6511 15.9249C27.0031 13.8899 23.8711 13.5029 20.7711 14.6009C19.8351 14.9239 18.9631 15.4729 18.1561 16.0539C16.8685 17.0158 15.8372 18.2795 15.1531 19.7339C14.4751 21.0589 14.2161 22.5449 14.2491 24.0299Z" fill="#5C0029"/>
</svg>
