<svg width="24" height="24" viewBox="0 0 24 24" fill="none" xmlns="http://www.w3.org/2000/svg">
<g clip-path="url(#clip0_333_1972)">
<path d="M0.514995 11.8564C0.514433 13.8728 1.0453 15.8418 2.05473 17.5772L0.418457 23.5067L6.5324 21.9156C8.22345 22.8293 10.1181 23.308 12.0435 23.3082H12.0486C18.4046 23.3082 23.5786 18.1749 23.5813 11.8654C23.5825 8.80798 22.3839 5.93301 20.2063 3.77003C18.029 1.60724 15.1334 0.415519 12.0481 0.414124C5.69131 0.414124 0.517713 5.54715 0.515089 11.8564" fill="url(#paint0_linear_333_1972)"/>
<path d="M0.103217 11.8527C0.102561 13.9417 0.652452 15.981 1.69787 17.7786L0.00292969 23.9207L6.3361 22.2726C8.0811 23.2168 10.0458 23.7147 12.045 23.7154H12.0501C18.6342 23.7154 23.994 18.3975 23.9968 11.8621C23.998 8.69488 22.7563 5.71656 20.5009 3.47609C18.2451 1.23591 15.2459 0.00130233 12.0501 0C5.46492 0 0.105841 5.31721 0.103217 11.8527ZM3.87485 17.469L3.63838 17.0965C2.64432 15.5277 2.11964 13.7149 2.12039 11.8534C2.12245 6.4213 6.5767 2.00186 12.0539 2.00186C14.7063 2.00298 17.1991 3.02921 19.074 4.89116C20.9488 6.7533 21.9804 9.22865 21.9798 11.8614C21.9773 17.2935 17.523 21.7135 12.0501 21.7135H12.0462C10.2642 21.7126 8.51646 21.2376 6.99228 20.34L6.62956 20.1265L2.87133 21.1045L3.87485 17.469Z" fill="url(#paint1_linear_333_1972)"/>
<path d="M9.06451 6.89746C8.84088 6.40416 8.60553 6.39421 8.39287 6.38556C8.21872 6.37811 8.01965 6.37867 7.82076 6.37867C7.62169 6.37867 7.29824 6.453 7.02484 6.74928C6.75116 7.04583 5.97998 7.76249 5.97998 9.22007C5.97998 10.6776 7.04968 12.0864 7.1988 12.2843C7.3481 12.4817 9.26386 15.5686 12.298 16.7562C14.8196 17.743 15.3327 17.5468 15.88 17.4973C16.4274 17.448 17.6462 16.7808 17.8948 16.089C18.1437 15.3973 18.1437 14.8043 18.0691 14.6804C17.9945 14.557 17.7954 14.4829 17.4969 14.3348C17.1983 14.1867 15.7307 13.4698 15.4571 13.371C15.1834 13.2722 14.9844 13.2229 14.7854 13.5195C14.5863 13.8157 14.0147 14.4829 13.8404 14.6804C13.6664 14.8785 13.4921 14.9031 13.1937 14.755C12.895 14.6063 11.9337 14.2938 10.7931 13.2846C9.9057 12.4993 9.3066 11.5296 9.13246 11.2329C8.95832 10.9367 9.11381 10.7762 9.26349 10.6285C9.39761 10.4958 9.5621 10.2826 9.7115 10.1096C9.86034 9.93663 9.91001 9.81318 10.0096 9.6156C10.1092 9.41783 10.0593 9.24481 9.98481 9.09663C9.91001 8.94844 9.32994 7.48323 9.06451 6.89746Z" fill="white"/>
</g>
<defs>
<linearGradient id="paint0_linear_333_1972" x1="1158.56" y1="2309.67" x2="1158.56" y2="0.414124" gradientUnits="userSpaceOnUse">
<stop stop-color="#1FAF38"/>
<stop offset="1" stop-color="#60D669"/>
</linearGradient>
<linearGradient id="paint1_linear_333_1972" x1="1199.7" y1="2392.07" x2="1199.7" y2="0" gradientUnits="userSpaceOnUse">
<stop stop-color="#F9F9F9"/>
<stop offset="1" stop-color="white"/>
</linearGradient>
<clipPath id="clip0_333_1972">
<rect width="24" height="24" fill="white"/>
</clipPath>
</defs>
</svg>
